<?xml version="1.0" encoding="UTF-8"?>
<svg xmlns="http://www.w3.org/2000/svg" xmlns:xlink="http://www.w3.org/1999/xlink" width="600" height="400" viewBox="0 0 600 400">
<defs>
<g>
<g id="glyph-0-0">
<path d="M 4.8125 -5.34375 L 8.578125 -5.34375 L 8.578125 -0.40625 C 8.085938 -0.238281 7.570312 -0.101562 7.03125 0 C 6.488281 0.09375 5.878906 0.140625 5.203125 0.140625 C 3.773438 0.140625 2.675781 -0.273438 1.90625 -1.109375 C 1.144531 -1.953125 0.765625 -3.171875 0.765625 -4.765625 C 0.765625 -5.765625 0.957031 -6.628906 1.34375 -7.359375 C 1.738281 -8.085938 2.300781 -8.648438 3.03125 -9.046875 C 3.769531 -9.453125 4.675781 -9.65625 5.75 -9.65625 C 6.25 -9.65625 6.742188 -9.597656 7.234375 -9.484375 C 7.722656 -9.378906 8.164062 -9.238281 8.5625 -9.0625 L 7.90625 -7.453125 C 7.613281 -7.597656 7.28125 -7.71875 6.90625 -7.8125 C 6.53125 -7.914062 6.140625 -7.96875 5.734375 -7.96875 C 5.140625 -7.96875 4.628906 -7.832031 4.203125 -7.5625 C 3.773438 -7.300781 3.441406 -6.925781 3.203125 -6.4375 C 2.972656 -5.957031 2.859375 -5.390625 2.859375 -4.734375 C 2.859375 -4.109375 2.941406 -3.554688 3.109375 -3.078125 C 3.273438 -2.597656 3.539062 -2.222656 3.90625 -1.953125 C 4.269531 -1.679688 4.742188 -1.546875 5.328125 -1.546875 C 5.609375 -1.546875 5.847656 -1.554688 6.046875 -1.578125 C 6.253906 -1.609375 6.441406 -1.640625 6.609375 -1.671875 L 6.609375 -3.671875 L 4.8125 -3.671875 Z "/>
</g>
<g id="glyph-0-1">
<path d="M 7.671875 -7.28125 L 7.671875 0 L 6.125 0 L 5.875 -0.9375 L 5.75 -0.9375 C 5.519531 -0.5625 5.207031 -0.285156 4.8125 -0.109375 C 4.414062 0.0546875 3.984375 0.140625 3.515625 0.140625 C 2.742188 0.140625 2.117188 -0.0703125 1.640625 -0.5 C 1.171875 -0.925781 0.9375 -1.601562 0.9375 -2.53125 L 0.9375 -7.28125 L 2.953125 -7.28125 L 2.953125 -3.03125 C 2.953125 -2.519531 3.039062 -2.132812 3.21875 -1.875 C 3.40625 -1.613281 3.703125 -1.484375 4.109375 -1.484375 C 4.710938 -1.484375 5.125 -1.6875 5.34375 -2.09375 C 5.5625 -2.5 5.671875 -3.085938 5.671875 -3.859375 L 5.671875 -7.28125 Z "/>
</g>
<g id="glyph-0-2">
<path d="M 4.109375 -1.453125 C 4.328125 -1.453125 4.535156 -1.472656 4.734375 -1.515625 C 4.941406 -1.566406 5.148438 -1.617188 5.359375 -1.671875 L 5.359375 -0.203125 C 5.140625 -0.109375 4.875 -0.03125 4.5625 0.03125 C 4.25 0.101562 3.90625 0.140625 3.53125 0.140625 C 3.09375 0.140625 2.703125 0.0664062 2.359375 -0.078125 C 2.023438 -0.222656 1.753906 -0.46875 1.546875 -0.8125 C 1.347656 -1.164062 1.25 -1.65625 1.25 -2.28125 L 1.25 -5.78125 L 0.3125 -5.78125 L 0.3125 -6.625 L 1.40625 -7.296875 L 1.96875 -8.828125 L 3.234375 -8.828125 L 3.234375 -7.28125 L 5.28125 -7.28125 L 5.28125 -5.78125 L 3.234375 -5.78125 L 3.234375 -2.28125 C 3.234375 -2 3.3125 -1.789062 3.46875 -1.65625 C 3.632812 -1.519531 3.847656 -1.453125 4.109375 -1.453125 Z "/>
</g>
<g id="glyph-0-3">
<path d="M 4.078125 -7.40625 C 5.085938 -7.40625 5.882812 -7.117188 6.46875 -6.546875 C 7.050781 -5.984375 7.34375 -5.171875 7.34375 -4.109375 L 7.34375 -3.125 L 2.671875 -3.125 C 2.691406 -2.582031 2.859375 -2.148438 3.171875 -1.828125 C 3.492188 -1.515625 3.953125 -1.359375 4.546875 -1.359375 C 4.992188 -1.359375 5.40625 -1.398438 5.78125 -1.484375 C 6.15625 -1.578125 6.539062 -1.710938 6.9375 -1.890625 L 6.9375 -0.390625 C 6.570312 -0.210938 6.191406 -0.0820312 5.796875 0 C 5.398438 0.09375 4.910156 0.140625 4.328125 0.140625 C 3.609375 0.140625 2.972656 0.00390625 2.421875 -0.265625 C 1.867188 -0.546875 1.429688 -0.957031 1.109375 -1.5 C 0.785156 -2.050781 0.625 -2.742188 0.625 -3.578125 C 0.625 -4.847656 0.941406 -5.800781 1.578125 -6.4375 C 2.210938 -7.082031 3.046875 -7.40625 4.078125 -7.40625 Z M 4.125 -5.984375 C 3.726562 -5.984375 3.398438 -5.851562 3.140625 -5.59375 C 2.890625 -5.34375 2.75 -4.972656 2.71875 -4.484375 L 5.46875 -4.484375 C 5.457031 -4.910156 5.34375 -5.265625 5.125 -5.546875 C 4.90625 -5.835938 4.570312 -5.984375 4.125 -5.984375 Z "/>
</g>
<g id="glyph-0-4">
</g>
<g id="glyph-0-5">
<path d="M 4.125 -9.515625 C 5.34375 -9.515625 6.242188 -9.257812 6.828125 -8.75 C 7.421875 -8.238281 7.71875 -7.515625 7.71875 -6.578125 C 7.71875 -6.023438 7.601562 -5.503906 7.375 -5.015625 C 7.144531 -4.523438 6.757812 -4.128906 6.21875 -3.828125 C 5.675781 -3.523438 4.945312 -3.375 4.03125 -3.375 L 3.171875 -3.375 L 3.171875 0 L 1.140625 0 L 1.140625 -9.515625 Z M 4.046875 -7.84375 L 3.171875 -7.84375 L 3.171875 -5.046875 L 3.859375 -5.046875 C 4.410156 -5.046875 4.847656 -5.15625 5.171875 -5.375 C 5.503906 -5.601562 5.671875 -5.984375 5.671875 -6.515625 C 5.671875 -6.941406 5.535156 -7.269531 5.265625 -7.5 C 5.003906 -7.726562 4.597656 -7.84375 4.046875 -7.84375 Z "/>
</g>
<g id="glyph-0-6">
<path d="M 5 -7.40625 C 5.132812 -7.40625 5.273438 -7.394531 5.421875 -7.375 C 5.578125 -7.363281 5.703125 -7.347656 5.796875 -7.328125 L 5.59375 -5.453125 C 5.5 -5.472656 5.382812 -5.488281 5.25 -5.5 C 5.113281 -5.519531 4.953125 -5.53125 4.765625 -5.53125 C 4.492188 -5.53125 4.21875 -5.472656 3.9375 -5.359375 C 3.664062 -5.242188 3.4375 -5.050781 3.25 -4.78125 C 3.070312 -4.519531 2.984375 -4.15625 2.984375 -3.6875 L 2.984375 0 L 0.96875 0 L 0.96875 -7.28125 L 2.5 -7.28125 L 2.796875 -6.046875 L 2.890625 -6.046875 C 3.109375 -6.421875 3.398438 -6.738281 3.765625 -7 C 4.128906 -7.269531 4.539062 -7.40625 5 -7.40625 Z "/>
</g>
<g id="glyph-0-7">
<path d="M 7.6875 -3.65625 C 7.6875 -2.445312 7.367188 -1.507812 6.734375 -0.84375 C 6.097656 -0.1875 5.234375 0.140625 4.140625 0.140625 C 3.460938 0.140625 2.859375 -0.00390625 2.328125 -0.296875 C 1.796875 -0.597656 1.378906 -1.03125 1.078125 -1.59375 C 0.773438 -2.15625 0.625 -2.84375 0.625 -3.65625 C 0.625 -4.863281 0.941406 -5.789062 1.578125 -6.4375 C 2.210938 -7.082031 3.082031 -7.40625 4.1875 -7.40625 C 4.875 -7.40625 5.476562 -7.257812 6 -6.96875 C 6.519531 -6.6875 6.929688 -6.265625 7.234375 -5.703125 C 7.535156 -5.140625 7.6875 -4.457031 7.6875 -3.65625 Z M 2.671875 -3.65625 C 2.671875 -2.9375 2.785156 -2.378906 3.015625 -1.984375 C 3.253906 -1.597656 3.640625 -1.40625 4.171875 -1.40625 C 4.679688 -1.40625 5.050781 -1.597656 5.28125 -1.984375 C 5.519531 -2.378906 5.640625 -2.9375 5.640625 -3.65625 C 5.640625 -4.375 5.519531 -4.921875 5.28125 -5.296875 C 5.050781 -5.679688 4.675781 -5.875 4.15625 -5.875 C 3.632812 -5.875 3.253906 -5.679688 3.015625 -5.296875 C 2.785156 -4.921875 2.671875 -4.375 2.671875 -3.65625 Z "/>
</g>
<g id="glyph-0-8">
<path d="M 3.40625 -7.40625 C 3.894531 -7.40625 4.3125 -7.3125 4.65625 -7.125 C 5 -6.9375 5.28125 -6.679688 5.5 -6.359375 L 5.578125 -6.359375 L 5.75 -7.28125 L 7.453125 -7.28125 L 7.453125 0.046875 C 7.453125 1.078125 7.15625 1.859375 6.5625 2.390625 C 5.96875 2.929688 5.046875 3.203125 3.796875 3.203125 C 3.234375 3.203125 2.726562 3.164062 2.28125 3.09375 C 1.84375 3.03125 1.429688 2.921875 1.046875 2.765625 L 1.046875 1.046875 C 1.453125 1.222656 1.863281 1.359375 2.28125 1.453125 C 2.695312 1.554688 3.179688 1.609375 3.734375 1.609375 C 4.285156 1.609375 4.707031 1.476562 5 1.21875 C 5.289062 0.96875 5.4375 0.613281 5.4375 0.15625 L 5.4375 -0.046875 C 5.4375 -0.148438 5.441406 -0.289062 5.453125 -0.46875 C 5.472656 -0.644531 5.488281 -0.800781 5.5 -0.9375 L 5.4375 -0.9375 C 5.226562 -0.613281 4.957031 -0.351562 4.625 -0.15625 C 4.289062 0.0390625 3.878906 0.140625 3.390625 0.140625 C 2.546875 0.140625 1.875 -0.179688 1.375 -0.828125 C 0.875 -1.484375 0.625 -2.414062 0.625 -3.625 C 0.625 -4.832031 0.875 -5.765625 1.375 -6.421875 C 1.882812 -7.078125 2.5625 -7.40625 3.40625 -7.40625 Z M 4.046875 -5.828125 C 3.609375 -5.828125 3.269531 -5.632812 3.03125 -5.25 C 2.789062 -4.863281 2.671875 -4.3125 2.671875 -3.59375 C 2.671875 -2.15625 3.144531 -1.4375 4.09375 -1.4375 C 4.625 -1.4375 5.003906 -1.59375 5.234375 -1.90625 C 5.460938 -2.21875 5.578125 -2.703125 5.578125 -3.359375 L 5.578125 -3.65625 C 5.578125 -4.382812 5.460938 -4.925781 5.234375 -5.28125 C 5.003906 -5.644531 4.609375 -5.828125 4.046875 -5.828125 Z "/>
</g>
<g id="glyph-0-9">
<path d="M 4.21875 -7.40625 C 5.125 -7.40625 5.816406 -7.191406 6.296875 -6.765625 C 6.785156 -6.335938 7.03125 -5.695312 7.03125 -4.84375 L 7.03125 0 L 5.640625 0 L 5.25 -0.984375 L 5.203125 -0.984375 C 4.878906 -0.597656 4.546875 -0.3125 4.203125 -0.125 C 3.859375 0.0507812 3.378906 0.140625 2.765625 0.140625 C 2.128906 0.140625 1.597656 -0.046875 1.171875 -0.421875 C 0.742188 -0.796875 0.53125 -1.367188 0.53125 -2.140625 C 0.53125 -2.898438 0.804688 -3.472656 1.359375 -3.859375 C 1.910156 -4.242188 2.734375 -4.457031 3.828125 -4.5 L 5.03125 -4.546875 L 5.03125 -4.765625 C 5.03125 -5.203125 4.929688 -5.503906 4.734375 -5.671875 C 4.535156 -5.847656 4.265625 -5.9375 3.921875 -5.9375 C 3.585938 -5.9375 3.25 -5.882812 2.90625 -5.78125 C 2.5625 -5.675781 2.21875 -5.546875 1.875 -5.390625 L 1.296875 -6.765625 C 1.671875 -6.960938 2.101562 -7.117188 2.59375 -7.234375 C 3.09375 -7.347656 3.632812 -7.40625 4.21875 -7.40625 Z M 4.28125 -3.328125 C 3.632812 -3.316406 3.1875 -3.21875 2.9375 -3.03125 C 2.695312 -2.84375 2.578125 -2.578125 2.578125 -2.234375 C 2.578125 -1.921875 2.664062 -1.691406 2.84375 -1.546875 C 3.019531 -1.398438 3.253906 -1.328125 3.546875 -1.328125 C 3.960938 -1.328125 4.3125 -1.453125 4.59375 -1.703125 C 4.882812 -1.953125 5.03125 -2.304688 5.03125 -2.765625 L 5.03125 -3.375 Z "/>
</g>
<g id="glyph-0-10">
<path d="M 9.515625 -7.40625 C 10.347656 -7.40625 10.976562 -7.191406 11.40625 -6.765625 C 11.832031 -6.347656 12.046875 -5.675781 12.046875 -4.75 L 12.046875 0 L 10.046875 0 L 10.046875 -4.234375 C 10.046875 -4.796875 9.953125 -5.195312 9.765625 -5.4375 C 9.578125 -5.6875 9.300781 -5.8125 8.9375 -5.8125 C 8.40625 -5.8125 8.035156 -5.617188 7.828125 -5.234375 C 7.617188 -4.859375 7.515625 -4.328125 7.515625 -3.640625 L 7.515625 0 L 5.5 0 L 5.5 -4.234375 C 5.5 -4.773438 5.410156 -5.171875 5.234375 -5.421875 C 5.054688 -5.679688 4.78125 -5.8125 4.40625 -5.8125 C 3.851562 -5.8125 3.476562 -5.601562 3.28125 -5.1875 C 3.082031 -4.78125 2.984375 -4.1875 2.984375 -3.40625 L 2.984375 0 L 0.96875 0 L 0.96875 -7.28125 L 2.515625 -7.28125 L 2.8125 -6.34375 L 2.875 -6.34375 C 3.082031 -6.675781 3.375 -6.9375 3.75 -7.125 C 4.125 -7.3125 4.554688 -7.40625 5.046875 -7.40625 C 5.585938 -7.40625 6.035156 -7.3125 6.390625 -7.125 C 6.753906 -6.9375 7.039062 -6.664062 7.25 -6.3125 L 7.3125 -6.3125 C 7.550781 -6.675781 7.863281 -6.945312 8.25 -7.125 C 8.632812 -7.3125 9.054688 -7.40625 9.515625 -7.40625 Z "/>
</g>
</g>
</defs>
<g fill="rgb(42.352941%, 67.843137%, 87.45098%)" fill-opacity="1">
<use xlink:href="#glyph-0-0" x="30" y="34.25293"/>
<use xlink:href="#glyph-0-1" x="40" y="34.25293"/>
<use xlink:href="#glyph-0-2" x="49" y="34.25293"/>
<use xlink:href="#glyph-0-3" x="55" y="34.25293"/>
<use xlink:href="#glyph-0-4" x="63" y="34.25293"/>
<use xlink:href="#glyph-0-5" x="66" y="34.25293"/>
<use xlink:href="#glyph-0-6" x="74" y="34.25293"/>
<use xlink:href="#glyph-0-7" x="80" y="34.25293"/>
<use xlink:href="#glyph-0-8" x="88" y="34.25293"/>
<use xlink:href="#glyph-0-6" x="96" y="34.25293"/>
<use xlink:href="#glyph-0-9" x="102" y="34.25293"/>
<use xlink:href="#glyph-0-10" x="110" y="34.25293"/>
<use xlink:href="#glyph-0-10" x="123" y="34.25293"/>
<use xlink:href="#glyph-0-3" x="136" y="34.25293"/>
</g>
</svg>
